<?xml version="1.0" encoding="UTF-8" standalone="no"?>
<!-- Created with Inkscape (http://www.inkscape.org/) -->

<svg
   xmlns:dc="http://purl.org/dc/elements/1.1/"
   xmlns:cc="http://creativecommons.org/ns#"
   xmlns:rdf="http://www.w3.org/1999/02/22-rdf-syntax-ns#"
   xmlns:svg="http://www.w3.org/2000/svg"
   xmlns="http://www.w3.org/2000/svg"
   xmlns:sodipodi="http://sodipodi.sourceforge.net/DTD/sodipodi-0.dtd"
   xmlns:inkscape="http://www.inkscape.org/namespaces/inkscape"
   version="1.2"
   width="48"
   height="48"
   id="svg6361"
   inkscape:version="0.47 r22583"
   sodipodi:docname="scanamati.svg">
  <metadata
     id="metadata2825">
    <rdf:RDF>
      <cc:Work
         rdf:about="">
        <dc:format>image/svg+xml</dc:format>
        <dc:type
           rdf:resource="http://purl.org/dc/dcmitype/StillImage" />
        <dc:title></dc:title>
      </cc:Work>
    </rdf:RDF>
  </metadata>
  <sodipodi:namedview
     pagecolor="#ffffff"
     bordercolor="#666666"
     borderopacity="1"
     objecttolerance="10"
     gridtolerance="10"
     guidetolerance="10"
     inkscape:pageopacity="0"
     inkscape:pageshadow="2"
     inkscape:window-width="1440"
     inkscape:window-height="852"
     id="namedview2823"
     showgrid="false"
     inkscape:zoom="4.9166667"
     inkscape:cx="-14.440678"
     inkscape:cy="24"
     inkscape:window-x="0"
     inkscape:window-y="0"
     inkscape:window-maximized="1"
     inkscape:current-layer="svg6361" />
  <defs
     id="defs3">
    <inkscape:perspective
       sodipodi:type="inkscape:persp3d"
       inkscape:vp_x="0 : 24 : 1"
       inkscape:vp_y="0 : 1000 : 0"
       inkscape:vp_z="48 : 24 : 1"
       inkscape:persp3d-origin="24 : 16 : 1"
       id="perspective2827" />
    <inkscape:perspective
       id="perspective3678"
       inkscape:persp3d-origin="0.5 : 0.33333333 : 1"
       inkscape:vp_z="1 : 0.5 : 1"
       inkscape:vp_y="0 : 1000 : 0"
       inkscape:vp_x="0 : 0.5 : 1"
       sodipodi:type="inkscape:persp3d" />
  </defs>
  <path
     style="fill:#000000"
     d="m 3.2203391e-8,24 0,-24.00000018 L 24,-1.8e-7 l 24,0 L 48,24 48,48 24,48 3.2203396e-8,48 l 0,-24 z M 19.5455,33.54546 C 23.8604,29.23052 22.2157,24.66071 15.733,22.95257 9.2416,21.24211 6.7486,19.33837 7.9821,17.03359 8.5408,15.98961 9.839,14.86851 10.8669,14.54226 13.4269,13.72974 18,15.61012 18,17.47525 18,18.31386 18.675,19 19.5,19 21.6237,19 21.3596,16.3596 19,14 16.7886,11.7886 11.1534,11.31237 7.8864,13.0608 c -1.0901,0.58344 -2.4225,2.21918 -2.9608,3.63498 -1.4946,3.93119 0.9517,6.83538 6.9747,8.2803 5.4353,1.3039 7.6568,3.12997 6.7338,5.53521 C 17.1632,34.34426 9.2785,34.11966 7.5129,30.19449 6.2945,27.48591 4,27.31146 4,29.92742 c 0,5.59348 11.0081,8.15547 15.5455,3.61804 z m 8.8137,-1.30233 C 29.2412,29.16794 29.5368,29 34.0672,29 c 4.5736,0 4.8271,0.14955 5.9328,3.5 0.6354,1.925 1.7953,3.5 2.5776,3.5 2.0133,0 1.7857,-1.20003 -2.4664,-13 -2.9492,-8.18453 -4.2268,-10.56602 -5.7936,-10.7994 -1.7236,-0.25674 -2.5509,1.23957 -5.8049,10.5 -2.0871,5.93967 -4.0219,11.40754 -4.2996,12.15082 -0.3344,0.89502 0.1234,1.23043 1.3556,0.99314 1.0898,-0.20988 2.2457,-1.70163 2.7905,-3.60143 z m 3.0404,-8.69903 c 0.9185,-3.65952 2.6108,-7.8756 2.9836,-7.43279 0.1799,0.21378 1.04,2.52619 1.9113,5.13869 l 1.5841,4.75 -3.5477,0 c -3.2679,0 -3.4991,-0.19371 -2.9313,-2.4559 z"
     id="path3668" />
</svg>
