/* XPM */
static char * scanamati_xpm[] = {
"48 48 166 2",
"  	c None",
". 	c #000000",
"+ 	c #101010",
"@ 	c #2E2E2E",
"# 	c #181818",
"$ 	c #040404",
"% 	c #666666",
"& 	c #CACACA",
"* 	c #EEEEEE",
"= 	c #FFFFFF",
"- 	c #F4F4F4",
"; 	c #D1D1D1",
"> 	c #909090",
", 	c #171717",
"' 	c #A6A6A6",
") 	c #D0D0D0",
"! 	c #454545",
"~ 	c #444444",
"{ 	c #DADADA",
"] 	c #F5F5F5",
"^ 	c #858585",
"/ 	c #030303",
"( 	c #202020",
"_ 	c #FEFEFE",
": 	c #282828",
"< 	c #F3F3F3",
"[ 	c #F0F0F0",
"} 	c #929292",
"| 	c #6A6A6A",
"1 	c #505050",
"2 	c #676767",
"3 	c #878787",
"4 	c #D5D5D5",
"5 	c #7F7F7F",
"6 	c #7B7B7B",
"7 	c #0B0B0B",
"8 	c #070707",
"9 	c #D4D4D4",
"0 	c #A8A8A8",
"a 	c #020202",
"b 	c #5B5B5B",
"c 	c #F9F9F9",
"d 	c #FCFCFC",
"e 	c #3C3C3C",
"f 	c #D6D6D6",
"g 	c #DDDDDD",
"h 	c #5A5A5A",
"i 	c #3B3B3B",
"j 	c #CCCCCC",
"k 	c #060606",
"l 	c #6F6F6F",
"m 	c #ABABAB",
"n 	c #323232",
"o 	c #656565",
"p 	c #B4B4B4",
"q 	c #6E6E6E",
"r 	c #DCDCDC",
"s 	c #8E8E8E",
"t 	c #737373",
"u 	c #131313",
"v 	c #FBFBFB",
"w 	c #FAFAFA",
"x 	c #9A9A9A",
"y 	c #5E5E5E",
"z 	c #C2C2C2",
"A 	c #0F0F0F",
"B 	c #E6E6E6",
"C 	c #FDFDFD",
"D 	c #1A1A1A",
"E 	c #B8B8B8",
"F 	c #686868",
"G 	c #868686",
"H 	c #9E9E9E",
"I 	c #050505",
"J 	c #080808",
"K 	c #010101",
"L 	c #BABABA",
"M 	c #626262",
"N 	c #575757",
"O 	c #888888",
"P 	c #A0A0A0",
"Q 	c #111111",
"R 	c #1D1D1D",
"S 	c #D9D9D9",
"T 	c #F8F8F8",
"U 	c #9C9C9C",
"V 	c #393939",
"W 	c #090909",
"X 	c #F2F2F2",
"Y 	c #0C0C0C",
"Z 	c #757575",
"` 	c #DFDFDF",
" .	c #AFAFAF",
"..	c #6B6B6B",
"+.	c #262626",
"@.	c #585858",
"#.	c #A4A4A4",
"$.	c #CFCFCF",
"%.	c #838383",
"&.	c #E3E3E3",
"*.	c #E2E2E2",
"=.	c #8B8B8B",
"-.	c #232323",
";.	c #B3B3B3",
">.	c #484848",
",.	c #292929",
"'.	c #383838",
").	c #7E7E7E",
"!.	c #C3C3C3",
"~.	c #919191",
"{.	c #141414",
"].	c #E7E7E7",
"^.	c #B1B1B1",
"/.	c #0D0D0D",
"(.	c #4D4D4D",
"_.	c #959595",
":.	c #8F8F8F",
"<.	c #717171",
"[.	c #E0E0E0",
"}.	c #4C4C4C",
"|.	c #C6C6C6",
"1.	c #373737",
"2.	c #BDBDBD",
"3.	c #B2B2B2",
"4.	c #4B4B4B",
"5.	c #797979",
"6.	c #DEDEDE",
"7.	c #7D7D7D",
"8.	c #C9C9C9",
"9.	c #808080",
"0.	c #E8E8E8",
"a.	c #313131",
"b.	c #A5A5A5",
"c.	c #4E4E4E",
"d.	c #0E0E0E",
"e.	c #ECECEC",
"f.	c #353535",
"g.	c #9F9F9F",
"h.	c #B0B0B0",
"i.	c #B6B6B6",
"j.	c #999999",
"k.	c #F1F1F1",
"l.	c #333333",
"m.	c #222222",
"n.	c #9D9D9D",
"o.	c #3F3F3F",
"p.	c #0A0A0A",
"q.	c #525252",
"r.	c #F6F6F6",
"s.	c #C4C4C4",
"t.	c #6D6D6D",
"u.	c #8A8A8A",
"v.	c #2F2F2F",
"w.	c #A7A7A7",
"x.	c #ACACAC",
"y.	c #5C5C5C",
"z.	c #EAEAEA",
"A.	c #DBDBDB",
"B.	c #A3A3A3",
"C.	c #4F4F4F",
"D.	c #F7F7F7",
"E.	c #EBEBEB",
"F.	c #595959",
"G.	c #747474",
"H.	c #252525",
"I.	c #2B2B2B",
". . . . . . . . . . . . . . . . . . . . . . . . . . . . . . . . . . . . . . . . . . . . . . . . ",
". . . . . . . . . . . . . . . . . . . . . . . . . . . . . . . . . . . . . . . . . . . . . . . . ",
". . . . . . . . . . . . . . . . . . . . . . . . . . . . . . . . . . . . . . . . . . . . . . . . ",
". . . . . . . . . . . . . . . . . . . . . . . . . . . . . . . . . . . . . . . . . . . . . . . . ",
". . . . . . . . . . . . . . . . . . . . . . . . . . . . . . . . . . . . . . . . . . . . . . . . ",
". . . . . . . . . . . . . . . . . . . . . . . . . . . . . . . . . . . . . . . . . . . . . . . . ",
". . . . . . . . . . . . . . . . . . . . . . . . . . . . . . . . . . . . . . . . . . . . . . . . ",
". . . . . . . . . . . . . . . . . . . . . . . . . . . . . . . . . . . . . . . . . . . . . . . . ",
". . . . . . . . . . . . . . . . . . . . . . . . . . . . . . . . . . . . . . . . . . . . . . . . ",
". . . . . . . . . . . . . . . . . . . . . . . . . . . . . . . . . . . . . . . . . . . . . . . . ",
". . . . . . . . . . . . . . . . . . . . . . . . . . . . . . . . . . . . . . . . . . . . . . . . ",
". . . . . . . . . . . + @ # . . . . . . . . . . . . . . . . . . . . . . . . . . . . . . . . . . ",
". . . . . . . $ % & * = = = - ; > , . . . . . . . . . . . . . . ' ) ) ) ! . . . . . . . . . . . ",
". . . . . . ~ { = = = = = = = = = ] ^ / . . . . . . . . . . . ( _ = = = ' . . . . . . . . . . . ",
". . . . . : < = = [ } | 1 2 3 4 = = = 5 . . . . . . . . . . . 6 = = = = ] 7 . . . . . . . . . . ",
". . . . 8 9 = = 0 + . . . . . a b c = d e . . . . . . . . . . f = = g = = h . . . . . . . . . . ",
". . . . i = = j k . . . . . . . . l = = m . . . . . . . . . n = = ) o = = p . . . . . . . . . . ",
". . . . q = = 6 . . . . . . . . . a < = r . . . . . . . . . s = = t u v = w u . . . . . . . . . ",
". . . . x = = y . . . . . . . . . . z = _ A . . . . . . . / B = C D . E = = F . . . . . . . . . ",
". . . . G = = H . . . . . . . . . . I J J K . . . . . . . ! = = L . . M = = z . . . . . . . . . ",
". . . . N = = = O , . . . . . . . . . . . . . . . . . . . P = = y . . Q w = _ R . . . . . . . . ",
". . . . $ S = = = T U V / . . . . . . . . . . . . . . . W X = ] Y . . . p = = Z . . . . . . . . ",
". . . . . @ ` = = = = = [  ...+.. . . . . . . . . . . . @.= = #.. . . . y = = $.. . . . . . . . ",
". . . . . . u %.&.= = = = = = = *.=.-.. . . . . . . . . ;.= = >.. . . . A T = = ,.. . . . . . . ",
". . . . . . . . / '.).!.v = = = = = _ ~./ . . . . . . {.w = ]./ . . . . . ^.= = %.. . . . . . . ",
". . . . . . . . . . . . /.(._.[ = = = =  .. . . . . . ..= = :.. . . . . . h = = r . . . . . . . ",
". . . . . . . . . . . . . . . /.<.[.= = = }.. . . . . |.= = = = = = = = = = = = = 1.. . . . . . ",
". . . . . . . . . . . . . . . . . $ 2.= = 3.. . . . -.= = = = = = = = = = = = = = ~.. . . . . . ",
". . . 4.[ [ 5.. . . . . . . . . . . n = = 6.. . . . 7.= = 8.9.9.9.9.9.9.9.9.#.= = 0./ . . . . . ",
". . . a.= = b.. . . . . . . . . . . + = = [.. . . . S = = c.. . . . . . . . d.T = = ! . . . . . ",
". . . + _ = e.Q . . . . . . . . . . >.= = b.. . . f.= = * k . . . . . . . . .  .= = g.. . . . . ",
". . . . h.= = U a . . . . . . . . / i.= = | . . . > = = j.. . . . . . . . . . N = = k.J . . . . ",
". . . . l._ = = !.m.. . . . . . u n.= = 6.Q . . / 0.= = o.. . . . . . . . . . p.- = = q.. . . . ",
". . . . . ..= = = r.s.n.Z t.u. .T = = r.v.. . . >.= = &.K . . . . . . . . . . . w.= = x.. . . . ",
". . . . . . y.z.= = = = = = = = = = A.4.. . . . B.= = u.. . . . . . . . . . . . C.= = D.d.. . . ",
". . . . . . . A t.g.$.c = = = E.!.F./ . . . . . G.9.9.-.. . . . . . . . . . . . 8 5 9.9.H.. . . ",
". . . . . . . . . . . I @ I.7 . . . . . . . . . . . . . . . . . . . . . . . . . . . . . . . . . ",
". . . . . . . . . . . . . . . . . . . . . . . . . . . . . . . . . . . . . . . . . . . . . . . . ",
". . . . . . . . . . . . . . . . . . . . . . . . . . . . . . . . . . . . . . . . . . . . . . . . ",
". . . . . . . . . . . . . . . . . . . . . . . . . . . . . . . . . . . . . . . . . . . . . . . . ",
". . . . . . . . . . . . . . . . . . . . . . . . . . . . . . . . . . . . . . . . . . . . . . . . ",
". . . . . . . . . . . . . . . . . . . . . . . . . . . . . . . . . . . . . . . . . . . . . . . . ",
". . . . . . . . . . . . . . . . . . . . . . . . . . . . . . . . . . . . . . . . . . . . . . . . ",
". . . . . . . . . . . . . . . . . . . . . . . . . . . . . . . . . . . . . . . . . . . . . . . . ",
". . . . . . . . . . . . . . . . . . . . . . . . . . . . . . . . . . . . . . . . . . . . . . . . ",
". . . . . . . . . . . . . . . . . . . . . . . . . . . . . . . . . . . . . . . . . . . . . . . . ",
". . . . . . . . . . . . . . . . . . . . . . . . . . . . . . . . . . . . . . . . . . . . . . . . ",
". . . . . . . . . . . . . . . . . . . . . . . . . . . . . . . . . . . . . . . . . . . . . . . . "};
